HIERARCHY
ROOT Elbow
{
	OFFSET	0.00	0.00	0.00
	CHANNELS 6 Xposition Yposition Zposition Zrotation Xrotation Yrotation
	JOINT L_Wrist
	{
		OFFSET	 0.208349	 0.000000	 0.000000
		CHANNELS 3 Zrotation Xrotation Yrotation
		JOINT L_index_Proximal
		{
			OFFSET	 0.093499	 0.010637	-0.002084
			CHANNELS 3 Zrotation Xrotation Yrotation
			JOINT L_index_b
			{
				OFFSET	 0.033152	 0.000000	 0.000000
				CHANNELS 3 Zrotation Xrotation Yrotation
				JOINT L_index_c
				{
					OFFSET	 0.018651	 0.000000	 0.000000
					CHANNELS 3 Zrotation Xrotation Yrotation
					End Site
					{
						OFFSET	 0.018651	 0.000000	 0.000000
					}
				}
			}
		}
		JOINT L_middle_Proximal
		{
			OFFSET	 0.090632	-0.006115	-0.003750
			CHANNELS 3 Zrotation Xrotation Yrotation
			JOINT L_middle_b
			{
				OFFSET	 0.037194	 0.000000	 0.000000
				CHANNELS 3 Zrotation Xrotation Yrotation
				JOINT L_middle_c
				{
					OFFSET	 0.021943	 0.000000	 0.000000
					CHANNELS 3 Zrotation Xrotation Yrotation
					End Site
					{
						OFFSET	 0.021943	 0.000000	 0.000000
					}
				}
			}
		}
		JOINT L_pinky_Proximal
		{
			OFFSET	 0.074015	-0.035449	-0.000417
			CHANNELS 3 Zrotation Xrotation Yrotation
			JOINT L_pinky_b
			{
				OFFSET	 0.027285	 0.000000	 0.000000
				CHANNELS 3 Zrotation Xrotation Yrotation
				JOINT L_pinky_c
				{
					OFFSET	 0.015093	 0.000000	 0.000000
					CHANNELS 3 Zrotation Xrotation Yrotation
					End Site
					{
						OFFSET	 0.015093	 0.000000	 0.000000
					}
				}
			}
		}
		JOINT L_ring_Proximal
		{
			OFFSET	 0.082801	-0.021859	-0.003750
			CHANNELS 3 Zrotation Xrotation Yrotation
			JOINT L_ring_b
			{
				OFFSET	 0.034478	 0.000000	 0.000000
				CHANNELS 3 Zrotation Xrotation Yrotation
				JOINT L_ring_c
				{
					OFFSET	 0.021377	 0.000000	 0.000000
					CHANNELS 3 Zrotation Xrotation Yrotation
					End Site
					{
						OFFSET	 0.021377	 0.000000	 0.000000
					}
				}
			}
		}
		JOINT L_thumb_Proximal
		{
			OFFSET	 0.030306	 0.018528	 0.004584
			CHANNELS 3 Zrotation Xrotation Yrotation
			JOINT L_thumb_a
			{
				OFFSET	 0.038520	 0.000000	 0.000000
				CHANNELS 3 Zrotation Xrotation Yrotation
				JOINT L_thumb_b
				{
					OFFSET	 0.026310	 0.000000	 0.000000
					CHANNELS 3 Zrotation Xrotation Yrotation
					End Site
					{
						OFFSET	 0.026310	 0.000000	 0.000000
					}
				}
			}
		}
	}
}
MOTION
Frames:    8
Frame Time: 0.01666667
-0.127828	-0.116200	 0.717312	 58.350220	 30.557700	-179.181600	 9.433792	 4.514349	 26.600710	 9.057981	-4.880626	-46.309970	-0.258278	 0.137990	-56.227600	 0.364059	-0.092167	-28.413680	-9.643418	-8.498521	-62.240600	 1.024434	-0.781674	-74.688430	-0.169711	 0.060805	-39.422420	-29.786780	-18.377330	-52.571330	-0.982517	 0.642364	-66.351120	 0.514130	-0.258072	-53.308540	-19.523690	-10.929100	-61.983000	-0.472156	 0.356453	-74.099720	 0.877391	-0.362348	-44.878460	 74.186580	 38.766290	-62.742610	-4.330872	 0.468280	-12.336170	-3.899204	 1.831401	-50.304720
-0.127970	-0.116027	 0.717357	 58.351210	 30.568830	-179.185400	 9.433584	 4.515404	 26.607360	 9.071894	-4.886267	-46.294360	-0.251192	 0.134201	-56.225980	 0.374847	-0.094878	-28.408080	-9.647046	-8.495976	-62.251890	 1.019488	-0.777973	-74.693760	-0.168954	 0.060539	-39.426550	-29.793970	-18.373630	-52.565750	-0.992474	 0.648723	-66.339560	 0.505811	-0.253938	-53.315870	-19.524530	-10.928540	-61.983010	-0.470470	 0.355139	-74.095340	 0.883517	-0.364879	-44.879810	 74.199490	 38.756860	-62.743060	-4.344501	 0.470269	-12.349910	-3.885708	 1.825681	-50.319210
-0.128067	-0.115819	 0.717435	 58.353220	 30.605310	-179.195900	 9.440431	 4.516240	 26.612690	 9.089035	-4.891511	-46.259010	-0.240092	 0.128338	-56.251970	 0.383219	-0.097054	-28.423470	-9.658015	-8.488224	-62.282880	 1.017069	-0.776242	-74.702240	-0.164953	 0.059134	-39.442720	-29.812990	-18.363280	-52.570380	-1.010256	 0.660329	-66.339520	 0.479458	-0.240735	-53.321260	-19.531100	-10.923840	-61.995780	-0.457922	 0.345544	-74.075860	 0.893975	-0.369269	-44.886090	 74.198110	 38.748480	-62.756900	-4.363451	 0.472849	-12.363490	-3.863617	 1.814904	-50.309860
-0.128115	-0.115730	 0.717454	 58.349930	 30.632880	-179.195000	 9.442262	 4.514796	 26.603460	 9.087327	-4.890465	-46.257440	-0.246005	 0.131478	-56.243400	 0.382716	-0.096912	-28.419580	-9.637323	-8.502836	-62.233260	 1.043861	-0.795853	-74.643940	-0.183902	 0.065901	-39.430670	-29.817240	-18.360700	-52.581410	-0.992810	 0.648611	-66.312090	 0.487177	-0.244562	-53.312610	-19.527140	-10.926770	-61.977570	-0.446028	 0.336377	-74.044910	 0.900914	-0.372100	-44.882430	 74.177980	 38.748550	-62.777810	-4.361952	 0.472549	-12.359760	-3.871232	 1.816799	-50.269050
-0.128264	-0.115566	 0.717404	 58.352170	 30.727820	-179.196800	 9.442382	 4.509111	 26.567180	 9.047361	-4.868001	-46.241610	-0.260531	 0.139153	-56.215920	 0.362333	-0.091759	-28.422490	-9.625715	-8.511050	-62.170950	 1.028685	-0.783370	-74.579920	-0.203169	 0.072827	-39.439870	-29.807550	-18.365450	-52.598020	-0.972834	 0.634668	-66.240180	 0.481024	-0.241671	-53.349600	-19.497780	-10.947440	-61.953380	-0.437165	 0.329422	-73.997900	 0.901961	-0.372757	-44.906720	 74.119300	 38.767930	-62.810480	-4.371864	 0.475163	-12.400140	-3.888578	 1.825218	-50.275570
-0.128299	-0.115553	 0.717365	 58.353580	 30.766940	-179.196600	 9.439553	 4.506560	 26.550920	 9.040975	-4.863300	-46.228380	-0.268679	 0.143450	-56.196480	 0.348376	-0.088242	-28.427430	-9.616510	-8.517514	-62.158370	 1.034984	-0.787500	-74.533180	-0.199142	 0.071413	-39.452980	-29.798180	-18.370540	-52.595970	-0.959975	 0.625871	-66.205600	 0.484921	-0.243708	-53.365270	-19.483550	-10.957490	-61.937260	-0.445447	 0.335512	-73.973320	 0.891793	-0.368694	-44.922780	 74.091930	 38.776300	-62.826710	-4.369338	 0.475400	-12.413500	-3.891953	 1.826318	-50.263340
-0.128399	-0.115559	 0.717357	 58.354600	 30.802100	-179.193600	 9.443913	 4.503947	 26.534220	 9.037783	-4.861977	-46.231590	-0.273727	 0.146173	-56.204430	 0.352914	-0.089440	-28.441830	-9.600626	-8.528687	-62.135520	 1.040246	-0.790984	-74.496730	-0.208613	 0.074833	-39.468410	-29.784260	-18.378840	-52.566570	-0.954981	 0.622298	-66.178770	 0.497381	-0.250053	-53.379340	-19.468270	-10.968320	-61.912910	-0.454827	 0.342359	-73.940710	 0.877329	-0.362991	-44.953150	 74.076420	 38.774120	-62.846160	-4.373991	 0.476865	-12.437840	-3.902434	 1.832126	-50.285270
-0.128385	-0.115603	 0.717350	 58.357100	 30.827960	-179.196600	 9.449038	 4.502276	 26.523550	 9.026351	-4.857045	-46.241430	-0.279564	 0.149298	-56.206810	 0.349611	-0.088643	-28.453100	-9.587539	-8.537872	-62.132680	 1.039290	-0.790053	-74.482320	-0.217553	 0.078062	-39.476200	-29.777840	-18.383160	-52.534470	-0.953837	 0.621226	-66.150990	 0.518200	-0.260627	-53.399540	-19.462630	-10.972370	-61.899880	-0.475995	 0.358188	-73.923150	 0.854095	-0.353556	-44.974450	 74.063940	 38.774270	-62.859040	-4.386942	 0.479445	-12.468130	-3.913873	 1.839734	-50.338710
